<svg width="50" height="50" viewBox="0 0 50 50" fill="none" xmlns="http://www.w3.org/2000/svg">
<g clip-path="url(#clip0)">
<path d="M10.1977 7.17163H39.8333C41.5078 7.17163 42.8779 8.54399 42.8779 10.2216V39.9118C42.8779 41.5894 41.5078 42.962 39.8333 42.962H10.1977C8.52315 42.962 7.15332 41.5894 7.15332 39.9118V10.2216C7.15332 8.54399 8.52315 7.17163 10.1977 7.17163Z" fill="#008ED1"/>
<path d="M25.0824 23.6335L25.1415 23.5445C26.1187 22.0939 27.4393 20.8698 28.8768 20.0064C30.3639 19.113 31.9928 18.5966 33.5292 18.5966C34.1295 18.5966 34.7169 18.6733 35.28 18.8341C36.3461 17.4872 36.6245 16.3235 36.3801 15.5206C36.3041 15.2702 36.1688 15.06 35.9893 14.903C35.8028 14.7394 35.5609 14.6256 35.2785 14.5741C34.2385 14.3844 31.9104 14.8051 31.9104 17.1924H28.3209C28.3209 16.0799 27.5376 15.1901 26.9903 14.764C26.3169 14.2393 25.6851 13.981 25.0965 13.9807C24.5009 13.9804 23.8633 14.2396 23.188 14.7496C22.6193 15.1791 21.9624 16.1931 22.0436 17.1924H18.3996C18.3996 14.8941 16.194 14.5161 15.1267 14.713C14.7415 14.7842 14.3985 14.9465 14.1293 15.1772C13.8825 15.3892 13.6987 15.6623 13.6065 15.9759C13.386 16.7245 13.6568 17.7477 14.7023 18.8893C15.3206 18.6911 15.9701 18.5966 16.6356 18.5966C18.1717 18.5966 19.8006 19.113 21.2881 20.0064C22.7256 20.8698 24.0461 22.0939 25.0233 23.5445C25.0432 23.574 25.0628 23.6037 25.0824 23.6335V23.6335ZM38.1238 20.6814C38.7437 21.4011 39.2275 22.2709 39.5044 23.1951C39.7356 23.9661 39.8272 24.7874 39.7402 25.606C39.6495 26.4583 39.3681 27.2946 38.8548 28.0564C38.5908 28.4482 38.2687 28.817 37.8822 29.1548C38.1652 29.4389 38.4206 29.7423 38.6469 30.0602C39.3488 31.0463 39.7729 32.179 39.8556 33.3188C39.9429 34.5166 39.6566 35.7168 38.9286 36.7707C38.2944 37.6887 37.3356 38.4695 36.0098 38.9994C35.0984 39.3639 34.158 39.5351 33.2224 39.5351V39.5286C31.3335 39.5286 29.4363 38.8539 27.8264 37.6822C26.7683 36.9118 25.8241 35.919 25.0821 34.7577C24.3401 35.9193 23.3965 36.9118 22.3382 37.6822C20.7285 38.8539 18.8314 39.5286 16.9424 39.5286V39.5351C16.0066 39.5351 15.0661 39.3636 14.155 38.9994C12.8293 38.4695 11.8704 37.6887 11.2362 36.7707C10.508 35.7168 10.2219 34.5166 10.3089 33.3188C10.3919 32.179 10.816 31.0463 11.5176 30.0602C11.7443 29.7423 12 29.4386 12.2829 29.1545C11.8965 28.817 11.574 28.4482 11.31 28.0564C10.7964 27.2946 10.5153 26.4583 10.4247 25.606C10.3374 24.7874 10.4292 23.9661 10.6605 23.1951C10.9183 22.3348 11.3556 21.5214 11.9145 20.8326C10.2127 18.7973 9.86606 16.7211 10.3662 15.0217C10.6479 14.0629 11.1985 13.2379 11.9338 12.6068C12.6471 11.9947 13.5355 11.5686 14.5185 11.3872C16.2335 11.0706 18.24 11.4998 20.0429 13.0152C20.4082 12.6516 20.7775 12.3285 21.1512 12.0466C22.4202 11.0884 23.7368 10.6012 25.0965 10.6018C26.4633 10.6024 27.7893 11.0924 29.067 12.0874C29.4265 12.3672 29.7839 12.689 30.1379 13.0526C32.1371 11.429 34.1959 10.9421 35.8738 11.2483C36.7739 11.4124 37.5704 11.7971 38.2114 12.3589C38.8594 12.9265 39.3421 13.6687 39.6073 14.5403C40.1261 16.2443 39.7873 18.4414 38.1238 20.6814ZM23.3895 29.0152C23.3895 27.7349 22.9366 26.5043 22.219 25.4391C21.5165 24.3959 20.5748 23.5206 19.5553 22.9082C18.5854 22.3256 17.5614 21.989 16.6356 21.989C16.077 21.989 15.564 22.1182 15.1451 22.4013C14.5792 22.7839 14.1192 23.4341 13.9008 24.1624C13.7918 24.526 13.7468 24.8972 13.7842 25.2482C13.8178 25.5661 13.9229 25.8778 14.114 26.1619C14.4487 26.6586 16.0994 27.5634 17.0821 27.5634V30.6867C16.1021 30.6867 14.7017 31.4135 14.2689 32.0213C13.9253 32.5036 13.7195 33.0381 13.6816 33.5572C13.6482 34.0177 13.7505 34.4684 14.0138 34.8495C14.2861 35.2437 14.7378 35.595 15.3981 35.8592C15.881 36.0522 16.4032 36.143 16.9424 36.143V36.1497C18.0979 36.1497 19.2993 35.7073 20.3543 34.9394C21.4424 34.1472 22.3519 33.0237 22.8833 31.6891C23.2054 30.8797 23.3895 29.9798 23.3895 29.0152V29.0152ZM27.9455 25.4391C27.228 26.5043 26.7753 27.7349 26.7753 29.0152C26.7753 29.9798 26.9591 30.8797 27.2816 31.6891C27.8129 33.0237 28.7224 34.1472 29.8102 34.9394C30.8655 35.7073 32.0666 36.1497 33.2224 36.1497V36.143C33.7614 36.143 34.2835 36.0522 34.7665 35.8592C35.427 35.595 35.8787 35.2437 36.151 34.8495C36.4144 34.4684 36.5167 34.0177 36.483 33.5572C36.4453 33.0381 36.2392 32.5036 35.8959 32.0213C35.4632 31.4135 33.9871 30.6867 33.1094 30.6867V27.5634C34.8345 27.5634 35.7161 26.6586 36.0506 26.1619C36.242 25.8778 36.347 25.5661 36.3807 25.2482C36.418 24.8972 36.373 24.526 36.264 24.1624C36.0457 23.4341 35.5857 22.7839 35.0194 22.4013C34.6008 22.1182 34.0878 21.989 33.5292 21.989C32.6035 21.989 31.5791 22.3256 30.6095 22.9082C29.5897 23.5206 28.6483 24.3959 27.9455 25.4391V25.4391Z" fill="white"/>
<path d="M27.1851 48.2296H40.3738H40.3765V48.2333C42.5049 48.2327 44.4431 47.3571 45.8509 45.947C47.2591 44.5363 48.1334 42.5936 48.1337 40.4603H48.13V40.4591V27.2461H49.9411V40.4591V40.4603H49.9378C49.9372 43.0992 48.8626 45.4954 47.1314 47.2297C45.4005 48.9635 43.0093 50.0398 40.3765 50.0404V50.0441H40.3738H27.1851V48.2296V48.2296Z" fill="#EF7E20"/>
<path d="M27.1851 0.0952324H48.597V0.0915527H48.5983V0.0952324C48.9697 0.0961528 49.3054 0.247417 49.5473 0.490409C49.7865 0.730333 49.9353 1.06291 49.9375 1.43169L49.9411 1.43537V1.43783H49.9375V22.8892H48.1334V1.90234H27.1851V0.0952324V0.0952324Z" fill="#008ED1"/>
<path d="M9.65313 0.0915527H22.8415V1.90602H9.65313H9.65038V1.90265C7.52198 1.90295 5.58376 2.77858 4.17595 4.18867C2.76784 5.59937 1.89321 7.54208 1.89321 9.67532H1.89688V9.67655V22.8895H0.0854492V9.67655V9.67532H0.0891245C0.0894307 7.03646 1.16466 4.64029 2.89586 2.90621C4.62644 1.17244 7.01729 0.0958554 9.65038 0.0952418V0.0915527H9.65313Z" fill="#EF7E20"/>
<path d="M22.8412 50.0404H1.42956V50.0438H1.42833V50.0404C1.05716 50.0392 0.720907 49.8879 0.47928 49.6452C0.240104 49.405 0.0909619 49.0715 0.0891245 48.7037L0.0854492 48.7V48.6975H0.0891245V27.2461H1.89291V48.233H22.8412V50.0404V50.0404Z" fill="#008ED1"/>
<g opacity="0.486726">
<path opacity="0.486726" d="M10.0957 7.24487H39.7055C41.3823 7.24487 42.7516 8.61347 42.7516 10.2866V39.8971C42.7516 41.5702 41.3823 42.9388 39.7055 42.9388H10.0957C8.42489 42.9388 7.05566 41.5702 7.05566 39.8971V10.2866C7.05566 8.61347 8.42489 7.24487 10.0957 7.24487Z" fill="#C5C7C9"/>
<path opacity="0.486726" d="M24.9687 23.6592L25.0291 23.5705C26.0062 22.1241 27.3271 20.9028 28.7627 20.042C30.2465 19.1506 31.8751 18.636 33.4132 18.636C34.0103 18.636 34.5954 18.7127 35.1623 18.8725C36.2239 17.5293 36.5014 16.3688 36.2602 15.5684C36.1817 15.3186 36.049 15.1088 35.8681 14.9519C35.6811 14.7891 35.4399 14.6757 35.1564 14.6244C34.1189 14.435 31.7906 14.8548 31.7906 17.2355H28.2078C28.2078 16.1257 27.4236 15.2385 26.8747 14.8132C26.2052 14.2903 25.5719 14.0327 24.9868 14.0327C24.3896 14.0321 23.7503 14.2909 23.0808 14.7993C22.5078 15.2276 21.8563 16.2391 21.9348 17.2355H18.2916C18.2916 14.9435 16.09 14.5665 15.0224 14.7625C14.6364 14.8337 14.2986 14.9954 14.0272 15.2258C13.7798 15.4375 13.5989 15.7095 13.5024 16.0219C13.2852 16.7687 13.5566 17.7892 14.6001 18.9274C15.2154 18.7302 15.8668 18.636 16.5303 18.636C18.0684 18.636 19.691 19.1506 21.1808 20.042C22.6163 20.9028 23.9373 22.1241 24.9144 23.5705C24.9325 23.6001 24.9507 23.6296 24.9687 23.6592V23.6592ZM38.0033 20.7152C38.6186 21.4329 39.1011 22.3003 39.3786 23.2219C39.6138 23.9909 39.7043 24.81 39.6138 25.6261C39.5233 26.4766 39.2459 27.3101 38.7332 28.0701C38.4678 28.461 38.1481 28.8289 37.7621 29.1655C38.0395 29.4489 38.2989 29.7517 38.5221 30.0684C39.2278 31.0522 39.65 32.1819 39.7345 33.3182C39.8189 34.5131 39.5354 35.7098 38.8055 36.7611C38.1722 37.6767 37.2132 38.4554 35.8862 38.9837C34.9814 39.3468 34.0405 39.5181 33.1056 39.5181V39.5115C31.2176 39.5115 29.3236 38.8384 27.7131 37.67C26.6576 36.9016 25.7107 35.9118 24.9687 34.7538C24.2268 35.9118 23.2859 36.9016 22.2303 37.67C20.6198 38.8384 18.7259 39.5115 16.838 39.5115V39.5181C15.903 39.5181 14.962 39.3468 14.0512 38.9837C12.7303 38.4554 11.7713 37.6767 11.1379 36.7611C10.4081 35.7098 10.1246 34.5131 10.209 33.3182C10.2935 32.1819 10.7157 31.0522 11.4154 30.0684C11.6446 29.7517 11.8979 29.4489 12.1814 29.1655C11.7954 28.8289 11.4757 28.461 11.2103 28.0701C10.6976 27.3101 10.4141 26.4766 10.3236 25.6261C10.2392 24.81 10.3297 23.9909 10.5589 23.2219C10.8183 22.3642 11.2525 21.5529 11.8135 20.8659C10.1125 18.8363 9.76875 16.7657 10.2694 15.0708C10.5468 14.1148 11.0957 13.2914 11.8316 12.6623C12.5433 12.0519 13.436 11.6267 14.4132 11.4458C16.1322 11.1303 18.1347 11.558 19.9382 13.0695C20.3001 12.707 20.6681 12.3849 21.0421 12.1032C22.3087 11.1478 23.6236 10.6622 24.9868 10.6628C26.35 10.6634 27.677 11.152 28.9497 12.1442C29.3116 12.4235 29.6675 12.7444 30.0234 13.1069C32.0199 11.4874 34.0767 11.0018 35.7535 11.307C36.6522 11.4711 37.4484 11.8547 38.0878 12.415C38.7392 12.9814 39.2157 13.7209 39.4811 14.5906C39.9998 16.2898 39.6621 18.481 38.0033 20.7152V20.7152ZM23.2798 29.0261C23.2798 27.7492 22.8275 26.5224 22.1097 25.4602C21.41 24.4198 20.4691 23.5464 19.4497 22.936C18.4786 22.3545 17.4532 22.0192 16.5303 22.0192C15.9754 22.0192 15.4627 22.1477 15.0404 22.4305C14.4735 22.8117 14.0151 23.4601 13.7979 24.1864C13.6894 24.5495 13.6471 24.9198 13.6833 25.2696C13.7135 25.5863 13.8221 25.8975 14.009 26.181C14.3468 26.6762 15.9935 27.5785 16.9767 27.5785V30.6933C15.9995 30.6933 14.6002 31.4183 14.1659 32.0244C13.8221 32.5058 13.617 33.0383 13.5808 33.5565C13.5446 34.0155 13.6471 34.4648 13.9125 34.8448C14.1839 35.2381 14.6363 35.5885 15.2938 35.8521C15.7763 36.0445 16.3011 36.135 16.838 36.135V36.1416C17.99 36.1416 19.1903 35.7007 20.2458 34.9347C21.3316 34.1446 22.2424 33.0239 22.7732 31.6933C23.0929 30.8857 23.2798 29.9888 23.2798 29.0261V29.0261ZM27.8338 25.4602C27.1161 26.5224 26.6636 27.7492 26.6636 29.0261C26.6636 29.9888 26.8446 30.8857 27.1703 31.6933C27.7011 33.0239 28.6059 34.1446 29.6976 34.9347C30.7471 35.7007 31.9475 36.1416 33.1056 36.1416V36.135C33.6424 36.135 34.1671 36.0445 34.6497 35.8521C35.3071 35.5885 35.7595 35.2381 36.031 34.8448C36.2903 34.4648 36.3929 34.0155 36.3627 33.5565C36.3265 33.0383 36.1154 32.5058 35.7776 32.0244C35.3433 31.4183 33.8655 30.6933 32.9909 30.6933V27.5785C34.716 27.5785 35.5966 26.6762 35.9284 26.181C36.1214 25.8975 36.224 25.5863 36.2602 25.2696C36.2964 24.9198 36.2541 24.5495 36.1455 24.1864C35.9223 23.4601 35.464 22.8117 34.897 22.4305C34.4808 22.1477 33.9681 22.0192 33.4132 22.0192C32.4843 22.0192 31.4649 22.3545 30.4938 22.936C29.4744 23.5464 28.5335 24.4198 27.8338 25.4602V25.4602Z" fill="white"/>
<path opacity="0.486726" d="M42.7516 29.0124C37.884 30.9781 32.1417 32.1151 25.9954 32.1151C18.902 32.1151 12.3515 30.6035 7.05566 28.0485V10.2866C7.05566 8.61347 8.42489 7.24487 10.0957 7.24487H39.7055C41.3823 7.24487 42.7516 8.61347 42.7516 10.2866V29.0124V29.0124Z" fill="white"/>
</g>
</g>
<defs>
<clipPath id="clip0">
<rect width="50" height="50" fill="white"/>
</clipPath>
</defs>
</svg>
